# xmcd CD database file
#
# Track frame offsets:
#	150
#	28088
#	65217
#	110003
#	154694
#	188728
#	240556
#
# Disc length: 3411 seconds
#
# Revision: 0
# Processed by: cddbd v1.5.1PL2 Copyright (c) Steve Scherf et al.
# Submitted via: CDex 1.51
#
DISCID=5c0d5107
DTITLE=Various Artist - Meditation
DYEAR=2002
DGENRE=New Age
TTITLE0=The Caress
TTITLE1=Transmission
TTITLE2=Emanation
TTITLE3=Prece dos Oceanos
TTITLE4=Earthensky
TTITLE5=Angel of Grace
TTITLE6=Perto do Céu
EXTD=YEAR: 2002
EXTT0=
EXTT1=
EXTT2=
EXTT3=
EXTT4=
EXTT5=
EXTT6=
PLAYORDER=
